<?xml version="1.0" encoding="utf-8"?>
<!-- Generator: Adobe Illustrator 27.0.0, SVG Export Plug-In . SVG Version: 6.00 Build 0)  -->
<svg version="1.1" id="Capa_1" focusable="false" xmlns="http://www.w3.org/2000/svg" xmlns:xlink="http://www.w3.org/1999/xlink"
	 x="0px" y="0px" viewBox="0 0 31.5 31.5" style="enable-background:new 0 0 31.5 31.5;" xml:space="preserve">
<style type="text/css">
	.st0{fill:#FF0000;}
</style>
<path class="st0" d="M15.7,2.8c4.2,0,4.7,0,6.4,0.1C23.6,3,24.5,3.3,25,3.5c0.7,0.3,1.3,0.6,1.8,1.2s0.9,1.1,1.2,1.8
	c0.2,0.6,0.5,1.4,0.5,2.9c0.1,1.7,0.1,2.2,0.1,6.4s0,4.7-0.1,6.4c-0.1,1.5-0.3,2.4-0.5,2.9c-0.3,0.7-0.6,1.3-1.2,1.8s-1,0.8-1.8,1.1
	c-0.6,0.2-1.4,0.5-2.9,0.5c-1.7,0.1-2.2,0.1-6.4,0.1s-4.7,0-6.4-0.1c-1.5,0-2.3-0.3-2.8-0.5c-0.7-0.3-1.3-0.6-1.8-1.2s-1-1-1.2-1.8
	C3.3,24.4,3,23.6,3,22.1c-0.1-1.7-0.1-2.2-0.1-6.4S2.9,11,3,9.3C3,7.9,3.2,7,3.5,6.5c0.3-0.7,0.6-1.3,1.2-1.8s1.1-0.9,1.8-1.2
	C7,3.3,7.8,3,9.4,2.9C11,2.9,11.5,2.8,15.7,2.8z M15.7,0c-4.3,0-4.8,0-6.5,0.1C7.6,0.2,6.4,0.4,5.4,0.8S3.5,1.7,2.6,2.6
	S1.2,4.4,0.8,5.4S0.1,7.5,0.1,9.2C0,10.9,0,11.5,0,15.7s0,4.8,0.1,6.5S0.4,25,0.8,26s0.9,1.9,1.8,2.8s1.8,1.4,2.8,1.8
	s2.1,0.7,3.8,0.7s2.2,0.1,6.5,0.1s4.8,0,6.5-0.1S25,31,26,30.6c1-0.4,1.9-0.9,2.8-1.8s1.4-1.8,1.8-2.8s0.7-2.1,0.7-3.8
	s0.1-2.2,0.1-6.5s0-4.8-0.1-6.5S31,6.4,30.6,5.4c-0.4-1-0.9-1.9-1.8-2.8S27,1.2,26,0.8s-2.1-0.7-3.8-0.7C20.6,0,20,0,15.7,0z"/>
<path class="st0" d="M15.7,7.7c-4.5,0-8,3.7-8,8.2c0,4.4,3.6,7.9,8,8c4.5,0,8.1-3.6,8.1-8.1S20.2,7.7,15.7,7.7L15.7,7.7z M15.7,21
	c-2.9,0-5.2-2.4-5.2-5.2s2.4-5.2,5.2-5.2S21,13,21,15.8S18.6,21,15.7,21z M26,7.3c0,1-0.8,1.9-1.9,1.9c-1,0-1.9-0.8-1.9-1.9
	c0-1,0.8-1.9,1.9-1.9C25.2,5.5,26,6.3,26,7.3L26,7.3z"/>
</svg>
