<?xml version="1.0" encoding="utf-8"?>
<!-- Generator: Adobe Illustrator 27.0.0, SVG Export Plug-In . SVG Version: 6.00 Build 0)  -->
<svg version="1.1" id="Capa_1" focusable="false" xmlns="http://www.w3.org/2000/svg" xmlns:xlink="http://www.w3.org/1999/xlink"
	 x="0px" y="0px" viewBox="0 0 32 25.5" style="enable-background:new 0 0 32 25.5;" xml:space="preserve">
<style type="text/css">
	.st0{fill:#FF0000;}
</style>
<path class="st0" d="M31.3,3c-0.9,1.3-1.9,2.4-3.1,3.3c0,0.1,0,0.2,0,0.4c0,0.2,0,0.3,0,0.4c0,1.7-0.2,3.4-0.8,5.1s-1.3,3.3-2.3,4.9
	c-1,1.5-2.2,2.9-3.6,4.1s-3.1,2.2-5.1,2.9c-2,0.7-4.1,1.1-6.3,1.1c-3.5,0-6.7-0.9-9.6-2.8c0.6,0,1.1,0.1,1.5,0.1
	c2.9,0,5.6-0.9,7.9-2.7c-1.4,0-2.6-0.4-3.7-1.3c-1.1-0.8-1.8-1.9-2.3-3.1c0.4,0.1,0.8,0.1,1.2,0.1c0.6,0,1.1-0.1,1.7-0.3
	c-1.5-0.3-2.7-1-3.6-2.2s-1.4-2.5-1.4-4V8.8c0.8,0.4,1.8,0.7,2.8,0.7C3.7,9,3.1,8.2,2.6,7.3s-0.8-1.9-0.8-3s0.3-2.2,0.8-3.2
	c1.6,2,3.5,3.5,5.8,4.7s4.7,1.8,7.3,1.9c-0.2-0.5-0.2-1-0.2-1.4c0-1.7,0.6-3.2,1.9-4.4S20.1,0,21.9,0c0.9,0,1.7,0.2,2.5,0.5
	s1.5,0.8,2.1,1.5c1.4-0.3,2.8-0.8,4-1.5C30,2,29.1,3.1,27.7,4C29,3.8,30.2,3.4,31.3,3L31.3,3z"/>
</svg>
