<?xml version="1.0" encoding="utf-8"?>
<!-- Generator: Adobe Illustrator 27.0.0, SVG Export Plug-In . SVG Version: 6.00 Build 0)  -->
<svg version="1.1" id="Capa_1" focusable="false" xmlns="http://www.w3.org/2000/svg" xmlns:xlink="http://www.w3.org/1999/xlink"
	 x="0px" y="0px" viewBox="0 0 21 20" style="enable-background:new 0 0 21 20;" xml:space="preserve">
<style type="text/css">
	.st0{fill:#FF0000;}
</style>
<path class="st0" d="M0.2,15.8c0,0.8,0.3,1.5,0.8,2.1s1.2,0.9,2,0.9h15c0.8,0,1.4-0.3,2-0.9s0.8-1.3,0.8-2.1V3.9
	c0-0.8-0.3-1.5-0.8-2.1s-1.2-0.9-2-0.9H3c-0.8,0-1.4,0.3-2,0.9S0.2,3.1,0.2,3.9V15.8z M7.7,13.7V6.1c0-0.1,0-0.1,0.1-0.2h0.1H8
	l7.2,3.8c0,0,0.1,0.1,0.1,0.2c0,0,0,0.1-0.1,0.1L8,13.8c0,0,0,0-0.1,0H7.8C7.7,13.7,7.7,13.7,7.7,13.7z"/>
</svg>
